<?xml version="1.0" encoding="UTF-8" standalone="no"?>
<svg width="54px" height="66px" viewBox="0 0 54 66" version="1.1" xmlns="http://www.w3.org/2000/svg" xmlns:xlink="http://www.w3.org/1999/xlink">
    <!-- Generator: Sketch 39 (31667) - http://www.bohemiancoding.com/sketch -->
    <title>Fill 1</title>
    <desc>Created with Sketch.</desc>
    <defs></defs>
    <g id="Page-1" stroke="none" stroke-width="1" fill="none" fill-rule="evenodd">
        <g id="components" transform="translate(-296.000000, -104.000000)" fill="#595959">
            <g id="Group" transform="translate(62.000000, 60.000000)">
                <g id="Page-1" transform="translate(234.000000, 44.000000)">
                    <path d="M18.0555,57 C18.8835,56.9685 19.5285,56.274 19.4985,55.4445 L17.2905,19.485 C17.2605,18.657 16.5645,18.012 15.7365,18.0405 C14.9085,18.072 14.262,18.768 14.292,19.596 L16.5015,55.5555 C16.5315,56.3835 17.2275,57.03 18.0555,57 L18.0555,57 Z M43.5,60 C43.2975,61.5825 42.156,63 40.5,63 L13.5,63 C11.8425,63 10.728,61.599 10.5,60 L7.5,12 L46.5,12 L43.5,60 Z M19.5,9 L34.5,9 L34.5,3.0015 L19.5,3.0015 L19.5,9 Z M52.5,9 L37.5,9 L37.5,3.0015 C37.5,1.344 36.156,0 34.5,0 L19.5,0 C17.8425,0 16.5,1.344 16.5,3.0015 L16.5,9 L1.5,9 C0.672,9 0,9.672 0,10.5015 C0,11.3295 0.672,12 1.5,12 L4.5,12 L7.5,60 C7.983,63.2835 10.1865,66 13.5,66 L40.5,66 C43.8135,66 45.936,63.2505 46.5,60 L49.5,12 L52.5,12 C53.328,12 54,11.3295 54,10.5015 C54,9.672 53.328,9 52.5,9 L52.5,9 Z M35.949,56.9985 C36.7785,57.03 37.473,56.382 37.503,55.554 L39.678,19.5945 C39.708,18.7665 39.0615,18.0705 38.2335,18.039 C37.4055,18.0105 36.7095,18.657 36.681,19.485 L34.5045,55.446 C34.4745,56.274 35.1225,56.9685 35.949,56.9985 L35.949,56.9985 Z M27,57 C27.828,57 28.5,56.3295 28.5,55.5 L28.5,19.5 C28.5,18.6705 27.828,18 27,18 C26.172,18 25.5,18.6705 25.5,19.5 L25.5,55.5 C25.5,56.3295 26.172,57 27,57 L27,57 Z" id="Fill-1"></path>
                </g>
            </g>
        </g>
    </g>
</svg>